<?xml version="1.0" encoding="utf-8"?>
<!-- Generator: Adobe Illustrator 24.2.3, SVG Export Plug-In . SVG Version: 6.00 Build 0)  -->
<svg version="1.1" id="Capa_1" xmlns="http://www.w3.org/2000/svg" xmlns:xlink="http://www.w3.org/1999/xlink" x="0px" y="0px"
	 viewBox="0 0 72 57" style="enable-background:new 0 0 72 57;" xml:space="preserve">
<style type="text/css">
	.st0{enable-background:new    ;}
	.st1{fill:#FFFFFF;}
</style>
<g class="st0">
	<path class="st1" d="M24.4,15.7c0,2.5-0.6,3.6-2.2,4.5c1.6,0.9,2.2,2.1,2.2,4.6v3.8c0,2.9,0.8,3.6,3.8,3.7v3.1
		c-4.2,0-4.9-0.2-6-1.3c-0.9-0.9-1.3-2.3-1.3-4.5v-4.3c0-2.3-0.6-3.3-2.3-3.7v-2.8c1.6-0.5,2.3-1.5,2.3-3.6v-4.8
		c0-2,0.4-3.3,1.4-4.1c1.1-1,1.9-1.2,5.9-1.2v3.3c-3,0-3.8,0.8-3.8,3.5V15.7z"/>
</g>
<g class="st0">
	<path class="st1" d="M24,46.7c0-3,2.4-5.2,5.4-5.2s5.4,2.3,5.4,5.2c0,3-2.4,5.2-5.4,5.2S24,49.7,24,46.7z M31.7,46.7
		c0-1.4-1-2.3-2.3-2.3c-1.3,0-2.3,0.9-2.3,2.3c0,1.4,1,2.3,2.3,2.3C30.7,49,31.7,48.1,31.7,46.7z"/>
</g>
<g class="st0">
	<path class="st1" d="M39.9,41.7h1.9v2.9h-1.9v7.1h-3v-7.1h-1.4v-2.9h1.4c0-2.8,1.6-4.5,4.9-4.3v2.9C40.6,40.2,39.9,40.6,39.9,41.7z
		"/>
</g>
<g class="st0">
	<path class="st1" d="M46.1,42.7v6.5c0,1.8,1,1.8,3,1.6v0.9c-2.7,0.4-4.1-0.2-4.1-2.5v-6.5h-2.2v-1H45v-2.5l1-0.3v2.8h3v1H46.1z"/>
	<path class="st1" d="M51.2,38.5c0-0.4,0.4-0.8,0.8-0.8c0.4,0,0.8,0.4,0.8,0.8c0,0.4-0.4,0.8-0.8,0.8C51.6,39.3,51.2,39,51.2,38.5z
		 M51.5,41.7h1v9.9h-1V41.7z"/>
	<path class="st1" d="M55,46.7c0-2.9,2.3-5.2,5.3-5.2c2,0,3.7,1,4.4,2.5l-0.8,0.5c-0.6-1.3-2-2.1-3.6-2.1c-2.5,0-4.3,1.9-4.3,4.2
		c0,2.4,1.8,4.2,4.3,4.2c1.6,0,3-0.8,3.6-2.1l0.9,0.5c-0.8,1.5-2.5,2.5-4.5,2.5C57.2,51.9,55,49.6,55,46.7z"/>
</g>
<g class="st0">
	<path class="st1" d="M51.2,11.8c0-2.7-0.8-3.5-3.8-3.5V5c4,0,4.8,0.2,5.9,1.2c1,0.9,1.4,2.1,1.4,4.1v4.8c0,2.1,0.6,3.1,2.3,3.6v2.8
		c-1.7,0.5-2.3,1.5-2.3,3.7v4.3c0,2.2-0.4,3.6-1.3,4.5c-1.1,1.1-1.8,1.3-6,1.3v-3.1c3.1,0,3.8-0.8,3.8-3.7v-3.8
		c0-2.5,0.6-3.7,2.2-4.6c-1.6-0.9-2.2-2-2.2-4.5V11.8z"/>
</g>
<ellipse class="st1" cx="31.8" cy="13.1" rx="3.6" ry="3.6"/>
<ellipse class="st1" cx="32.4" cy="27.5" rx="3.6" ry="3.5"/>
<ellipse class="st1" cx="43" cy="27.5" rx="3.6" ry="3.5"/>
<ellipse class="st1" cx="43" cy="13.1" rx="3.6" ry="3.6"/>
<ellipse class="st1" cx="37.3" cy="20" rx="3.6" ry="3.5"/>
<g class="st0">
	<path class="st1" d="M10.3,49.3l2.9-2.4c0.8,1.2,2,1.9,3.8,1.6c1.8-0.3,2.1-1.1,2-1.7c-0.2-1-1.2-1.2-3.8-1.4
		c-2.5-0.2-5.1-0.9-5.7-3.9c-0.6-3.1,1.7-5.3,4.5-5.9c2.7-0.5,5,0.3,6.6,2.5l-2.8,2.4c-0.8-1-1.7-1.6-3.2-1.3
		c-1.2,0.2-1.6,0.9-1.5,1.5c0.1,0.7,0.6,1.2,3.3,1.4c2.6,0.3,5.5,0.6,6.2,3.9c0.6,3.1-1.6,5.4-5.1,6C14.1,52.7,11.7,51.5,10.3,49.3z
		"/>
</g>
</svg>
