<svg id="Capa_1" data-name="Capa 1" xmlns="http://www.w3.org/2000/svg" viewBox="0 0 72 57"><path d="M66.05,17.9H63.26V15.34A2.21,2.21,0,0,0,61,13.12h-.65V11.31h5.7a3.07,3.07,0,0,0,0-6.13h-5.7V4.6a1,1,0,0,0-1.94,0v.58H52.76a3.07,3.07,0,1,0,0,6.13h5.69v1.81H57.8a2.22,2.22,0,0,0-2.22,2.22V17.9H53a2.65,2.65,0,0,0-1.2.29l-.43.22-3.77-3.76a4.47,4.47,0,0,0-3.21-1.33H33.36a1,1,0,1,0,0,1.94H44.42a2.58,2.58,0,0,1,1.84.76l3.33,3.33L44.54,22a1.3,1.3,0,0,1-.58.14H28a1.23,1.23,0,0,1-.57-.14l-5.06-2.64L25.74,16a2.58,2.58,0,0,1,1.84-.76h1.65a1,1,0,0,0,0-1.94H27.58a4.47,4.47,0,0,0-3.21,1.33L20.6,18.41l-.43-.22A2.65,2.65,0,0,0,19,17.9H16.42V15.34a2.22,2.22,0,0,0-2.22-2.22h-.65V11.31h5.69a3.07,3.07,0,1,0,0-6.13H13.55V4.6a1,1,0,0,0-1.94,0v.58H5.91a3.07,3.07,0,0,0,0,6.13h5.7v1.81H11a2.21,2.21,0,0,0-2.22,2.22V17.9H6a3.09,3.09,0,1,0,0,6.17h6.23L7.6,31a1.81,1.81,0,0,0-.29,1.15l.3,3.23a1,1,0,0,0,1,.88h.09a1,1,0,0,0,.88-1.05L9.25,32l5.26-7.91h.41l3,3.31L12.11,32.9a1.77,1.77,0,0,0-.55,1.28v11.4a.53.53,0,0,1-.53.53.53.53,0,0,1-.53-.49l-.59-6.35a1,1,0,0,0-1.05-.88,1,1,0,0,0-.88,1l.59,6.36a2.47,2.47,0,0,0,4.93-.22V34.25l5.67-5.42L24,34.24a3.16,3.16,0,0,0,2.37,1.06h5.77V39a6.33,6.33,0,0,0-.61.39H26.34a2.14,2.14,0,0,0-2.14,2.14v1.14H22.38v-.24a2,2,0,0,0-2-2H18.66a2,2,0,0,0-2,2v6.48a2,2,0,0,0,2,2H20.4a2,2,0,0,0,2-2v-.24H24.2v1.14A2.14,2.14,0,0,0,26.34,52h5.19a7.63,7.63,0,0,0,8.81,0h5.19a2.14,2.14,0,0,0,2.14-2.14V48.69h1.82v.24a2,2,0,0,0,2,2h1.74a2,2,0,0,0,2-2V42.45a2,2,0,0,0-2-2H51.47a2,2,0,0,0-2,2v.24H47.67V41.55a2.14,2.14,0,0,0-2.14-2.14H40.34a6.33,6.33,0,0,0-.61-.39V35.3h5.9A3.16,3.16,0,0,0,48,34.24l4.83-5.41,5.67,5.42V45.58a2.47,2.47,0,0,0,4.93.22l1.26-13.7A1.81,1.81,0,0,0,64.4,31l-4.58-6.88h6.23a3.09,3.09,0,1,0,0-6.17Zm0-10.78a1.13,1.13,0,0,1,0,2.25h-5.7V7.12ZM52.76,9.37a1.13,1.13,0,1,1,0-2.25h5.69V9.37ZM19.24,7.12a1.13,1.13,0,1,1,0,2.25H13.55V7.12ZM5.91,9.37a1.13,1.13,0,0,1,0-2.25h5.7V9.37Zm51.61,6a.28.28,0,0,1,.28-.28H61a.27.27,0,0,1,.28.28V17.9h-3.8V15.34Zm-46.84,0a.27.27,0,0,1,.28-.28H14.2a.28.28,0,0,1,.28.28V17.9h-3.8Zm9.76,33.59a0,0,0,0,1,0,0H18.66a0,0,0,0,1,0,0V42.45a0,0,0,0,1,0,0H20.4a0,0,0,0,1,0,0Zm1.94-2.18V44.63H24.2v2.12Zm3.76,3.08V41.55a.2.2,0,0,1,.2-.2h3.27a7.65,7.65,0,0,0,0,8.68H26.34A.2.2,0,0,1,26.14,49.83Zm4.06-4.14a5.74,5.74,0,1,1,5.74,5.74,5.75,5.75,0,0,1-5.74-5.74Zm21.23-3.24a0,0,0,0,1,0,0h1.74a0,0,0,0,1,0,0v6.48a0,0,0,0,1,0,0H51.47a0,0,0,0,1,0,0Zm-1.94,2.18v2.12H47.67V44.63Zm-3.76-3.08v8.28a.2.2,0,0,1-.2.2H42.26a7.6,7.6,0,0,0,0-8.68h3.27A.2.2,0,0,1,45.73,41.55Zm-7.94-3.31a7.6,7.6,0,0,0-3.71,0V35.3h3.71Zm25-6.26L61.5,45.62a.53.53,0,0,1-.53.49.53.53,0,0,1-.53-.53V34.18a1.77,1.77,0,0,0-.55-1.28l-5.77-5.52,3-3.31h.41Zm3.3-9.85H56.64a1,1,0,0,0-.72.32l-6.35,7.12H44.71a1,1,0,1,0,0,1.94h3.13L46.55,33a1.23,1.23,0,0,1-.92.41H26.37a1.23,1.23,0,0,1-.92-.41l-1.29-1.44H40.58a1,1,0,0,0,0-1.94H22.43l-6.35-7.12a1,1,0,0,0-.72-.32H6a1.15,1.15,0,1,1,0-2.29H19a.7.7,0,0,1,.31.07l7.29,3.8a3.26,3.26,0,0,0,1.47.36H44a3.26,3.26,0,0,0,1.47-.36l7.29-3.8a.7.7,0,0,1,.31-.07h13a1.15,1.15,0,1,1,0,2.29Z"/><path d="M35.94,41.89a3.8,3.8,0,1,0,3.79,3.8,3.8,3.8,0,0,0-3.79-3.8Zm0,5.66a1.86,1.86,0,1,1,1.85-1.86,1.86,1.86,0,0,1-1.85,1.86Z"/></svg>